<svg width="238" height="130" viewBox="0 0 238 130" fill="none" xmlns="http://www.w3.org/2000/svg">
<path d="M14.9424 0C18.6081 0.000154786 18.5064 6.92422 18.3027 7.6377C29.5046 1.73128 63.731 -5.60738 69.3223 13.4521C76.0434 36.3651 41.5213 45.8363 20.4414 50.4189C27.4681 52.252 44.2101 57.8121 54.9639 65.3887C65.7175 72.9653 73.4942 86.8484 76.04 91.3291H63.209C63.4127 85.5245 59.8515 73.9431 41.2158 64.167C23.6155 54.9341 17.5899 57.6493 18.3027 58.0566C17.5899 66.9163 17.6917 85.5515 18.3027 87.6904C19.0682 90.3695 20.4411 90.9491 20.4414 91.3564H7.30469C7.71207 91.2545 8.64891 90.5011 9.1377 88.3018C9.6265 86.1021 9.16355 9.48068 9.1377 6.12012C9.11142 2.75984 1.5 2.75977 1.5 2.75977C6.38809 1.33407 11.2763 -4.68895e-06 14.9424 0ZM59.2402 16.1924C55.2687 -4.58203 18.3027 16.1924 18.3027 16.1924V43.9932C18.3027 43.9932 63.2113 36.9666 59.2402 16.1924Z" fill="white"/>
<path d="M88.4969 91.3565H79.3317C79.3317 91.3565 80.5959 90.4699 80.5959 88.6968V71.852C80.5959 70.3005 79.3317 68.749 79.3317 68.749H88.4969C88.4969 68.749 86.9167 70.3005 86.9167 71.852V88.6968C86.9167 90.9132 88.4969 91.3565 88.4969 91.3565Z" fill="white"/>
<rect x="79.9427" y="60.1949" width="7.94316" height="4.27708" rx="1" fill="white"/>
<path d="M98.1558 67.1013H91.8673C91.8673 67.1013 91.2685 65.5055 93.3647 62.3141C95.4608 59.1226 102.049 59.7892 107.439 61.6758C112.829 63.5624 117.919 71.8885 117.919 71.8885V62.9524C117.919 61.6758 117.021 61.0375 117.021 61.0375L126.345 61.0375C126.345 61.0375 125.447 61.0375 125.447 62.9524V88.8033C125.447 90.0799 126.345 91.3565 126.345 91.3565H117.021C117.021 91.3565 119.417 82.1012 114.027 75.08C108.636 68.0587 102.348 62.9524 99.3536 63.9098C96.3591 64.8673 98.1558 67.1013 98.1558 67.1013Z" fill="white"/>
<path d="M178.22 90.1002H136.317V46.7606C136.317 45.1903 129.636 44.2482 129.636 44.2482C129.636 44.2482 144.819 40.4795 144.819 42.6779V46.7606H178.22C180.345 46.7606 180.649 44.8763 180.649 44.8763V54.5515C180.649 54.5515 179.434 52.6672 178.22 52.6672H144.819V64.6617H155.446C156.661 64.6617 158.179 62.4634 158.179 62.4634V70.9428C158.179 70.9428 156.964 68.7445 155.446 68.7445H144.819V83.8191H178.22C179.738 83.8191 180.649 81.9347 180.649 81.9347V91.3564C180.649 91.3564 179.738 90.1002 178.22 90.1002Z" fill="white"/>
<path d="M225.336 68.4804C216.413 58.6909 187.211 59.1582 184.193 61.1848C181.176 63.2113 205.949 61.1848 214.364 71.115C222.779 81.0452 211.347 91.3564 211.347 91.3564H225.336C225.336 91.3564 234.258 78.27 225.336 68.4804Z" fill="white"/>
<path d="M199.916 91.3564H188.307C188.307 91.3564 189.908 90.4022 189.908 88.494V70.3656C189.908 68.6959 188.307 67.0262 188.307 67.0262H199.916C199.916 67.0262 197.914 68.6959 197.914 70.3656V88.494C197.914 90.8793 199.916 91.3564 199.916 91.3564Z" fill="white"/>
<path d="M195.5 110L236.5 110" stroke="white" stroke-width="3" stroke-linecap="round"/>
<path d="M1.5 110L131.5 110" stroke="white" stroke-width="3" stroke-linecap="round"/>
<path d="M161.944 96.4555C162.011 96.0923 162.204 95.7643 162.488 95.5282C162.773 95.2921 163.131 95.1629 163.5 95.1629C163.869 95.1629 164.227 95.2921 164.512 95.5282C164.796 95.7643 164.989 96.0923 165.056 96.4555L166.72 105.256C166.839 105.881 167.143 106.457 167.593 106.907C168.043 107.357 168.619 107.661 169.244 107.78L178.044 109.444C178.408 109.511 178.736 109.704 178.972 109.988C179.208 110.273 179.337 110.631 179.337 111C179.337 111.37 179.208 111.727 178.972 112.012C178.736 112.296 178.408 112.489 178.044 112.556L169.244 114.221C168.619 114.339 168.043 114.643 167.593 115.093C167.143 115.543 166.839 116.119 166.72 116.744L165.056 125.545C164.989 125.908 164.796 126.236 164.512 126.472C164.227 126.708 163.869 126.837 163.5 126.837C163.131 126.837 162.773 126.708 162.488 126.472C162.204 126.236 162.011 125.908 161.944 125.545L160.279 116.744C160.161 116.119 159.857 115.543 159.407 115.093C158.957 114.643 158.381 114.339 157.756 114.221L148.955 112.556C148.592 112.489 148.264 112.296 148.028 112.012C147.792 111.727 147.663 111.37 147.663 111C147.663 110.631 147.792 110.273 148.028 109.988C148.264 109.704 148.592 109.511 148.955 109.444L157.756 107.78C158.381 107.661 158.957 107.357 159.407 106.907C159.857 106.457 160.161 105.881 160.279 105.256L161.944 96.4555Z" fill="white"/>
</svg>
