<svg width="181" height="584" viewBox="0 0 181 584" fill="none" xmlns="http://www.w3.org/2000/svg">
<g filter="url(#filter0_d_31_8)">
<ellipse cx="90.2" cy="57.2" rx="27" ry="34" fill="white"/>
<path d="M81.4238 108.243C85.8227 100.789 82.9633 86.7207 82.9633 86.7207L91.6869 66.2C91.6869 66.2 92.2 544.184 92.2 560.2H29.0818C41.9107 556.696 54.3919 552.203 63.4633 545.685C72.5346 539.167 77.8316 535.675 81.4237 526.666C85.0158 517.657 52.7625 301.939 50.6344 307.444C48.5063 312.95 44.9897 327.464 41.3976 337.475C37.8055 347.485 30.1083 364.502 24.9766 363.501C19.845 362.5 27.3386 322.633 28.5687 296.433C29.7988 270.233 33.1871 167.803 33.1871 157.793C33.1871 147.783 32.674 134.769 39.345 126.761C46.016 118.753 53.7134 119.754 60.3844 118.753C67.0554 117.752 77.0248 115.696 81.4238 108.243Z" fill="white"/>
<path d="M99.0123 108.2C94.5986 100.754 97.4677 86.7 97.4677 86.7L88.7148 66.2C88.7148 66.2 88.2 543.7 88.2 559.7H151.53C138.658 556.2 126.135 551.711 117.033 545.2C107.931 538.689 102.616 535.2 99.0124 526.2C95.4082 517.2 127.77 301.7 129.905 307.2C132.04 312.7 135.568 327.2 139.173 337.2C142.777 347.2 150.5 364.2 155.648 363.2C160.797 362.2 153.279 322.373 152.044 296.2C150.81 270.027 147.41 167.7 147.41 157.7C147.41 147.7 147.925 134.7 141.232 126.7C134.539 118.7 126.816 119.7 120.122 118.7C113.429 117.7 103.426 115.646 99.0123 108.2Z" fill="white"/>
</g>
<defs>
<filter id="filter0_d_31_8" x="1.14441e-05" y="-4.95911e-05" width="180.631" height="583.4" filterUnits="userSpaceOnUse" color-interpolation-filters="sRGB">
<feFlood flood-opacity="0" result="BackgroundImageFix"/>
<feColorMatrix in="SourceAlpha" type="matrix" values="0 0 0 0 0 0 0 0 0 0 0 0 0 0 0 0 0 0 127 0" result="hardAlpha"/>
<feOffset/>
<feGaussianBlur stdDeviation="11.6"/>
<feComposite in2="hardAlpha" operator="out"/>
<feColorMatrix type="matrix" values="0 0 0 0 1 0 0 0 0 1 0 0 0 0 1 0 0 0 0.74 0"/>
<feBlend mode="normal" in2="BackgroundImageFix" result="effect1_dropShadow_31_8"/>
<feBlend mode="normal" in="SourceGraphic" in2="effect1_dropShadow_31_8" result="shape"/>
</filter>
</defs>
</svg>
